# xmcd CD database file
#
# Track frame offsets:
#	150
#	11820
#	29157
#	55179
#	68589
#	80417
#	94710
#	108515
#	118747
#	128371
#	141660
#	157810
#	168389
#	180586
#	192984
#	205653
#	227444
#	244023
#	254428
#	265515
#	282008
#	293898
#	306841
#	323800
#	340158
#
# Disc length: 4781 seconds
#
# Revision: 2
# Processed by: cddbd v1.5.2PL0 Copyright (c) Steve Scherf et al.
# Submitted via: CDex 1.75
#
DISCID=5e12ab19
DTITLE=Kenny Ball And His Jazzmen - As Good As It Gets CD1
DYEAR=2013
DGENRE=Jazz
TTITLE0=Casablanca
TTITLE1=Savoy Blues
TTITLE2=Original Dixieland One Step
TTITLE3=Midnight In Moscow
TTITLE4=Georgia Swing
TTITLE5=Livery Stable Blues
TTITLE6=Cornet Chop Suey
TTITLE7=Chimes Blues
TTITLE8=I Still Love You All
TTITLE9=Sukiyaki
TTITLE10=Lazy River
TTITLE11=Samantha
TTITLE12=1919 Rag
TTITLE13=I'm Crazy 'Bout My Baby
TTITLE14=The Green Leaves Of Summer
TTITLE15=Riverszide Blues
TTITLE16=High Society
TTITLE17=Someday (You'll Be Sorry)
TTITLE18=Nuages
TTITLE19=Fingerbuster
TTITLE20=So Do I
TTITLE21=Potato Head Blues
TTITLE22=Clarinet Marmalade
TTITLE23=You Brought A New Kind Of Love To Me
TTITLE24=American Patrol
EXTD=YEAR: 2013
EXTT0=
EXTT1=
EXTT2=
EXTT3=
EXTT4=
EXTT5=
EXTT6=
EXTT7=
EXTT8=
EXTT9=
EXTT10=
EXTT11=
EXTT12=
EXTT13=
EXTT14=
EXTT15=
EXTT16=
EXTT17=
EXTT18=
EXTT19=
EXTT20=
EXTT21=
EXTT22=
EXTT23=
EXTT24=
PLAYORDER=
